PathFileType	4	(X/Y/Z)	Patient4_TMGait_0pt6_02_left_18.trc.trc
DataRate	CameraRate	NumFrames	NumMarkers	Units	OrigDataRate	OrigDataStartFrame	OrigNumFrames
80.000000000000	80.000000000000	5	33	mm	80.000000000000	1	       141
Frame#	Time	Sacral			L.Shoulder			Chest			R.Shoulder			Neck			R.ASIS			L.ASIS			R.Thigh.Superior			R.Thigh.Lateral			R.Thigh.Inferior			R.Patella			L.Thigh.Superior			L.Thigh.Lateral			L.Thigh.Inferior			L.Patella			L.Shank.Superior			L.Shank.Lateral			L.Shank.Inferior			R.Shank.Superior			R.Shank.Lateral			R.Shank.Inferior			R.Heel			R.Midfoot.Superior			R.Midfoot.Lateral			R.Toe			L.Heel			L.Midfoot.Lateral			L.Midfoot.Superior			L.Toe			L.Elbow			L.Wrist			R.Elbow			R.Wrist			
		X1	Y1	Z1	X2	Y2	Z2	X3	Y3	Z3	X4	Y4	Z4	X5	Y5	Z5	X6	Y6	Z6	X7	Y7	Z7	X8	Y8	Z8	X9	Y9	Z9	X10	Y10	Z10	X11	Y11	Z11	X12	Y12	Z12	X13	Y13	Z13	X14	Y14	Z14	X15	Y15	Z15	X16	Y16	Z16	X17	Y17	Z17	X18	Y18	Z18	X19	Y19	Z19	X20	Y20	Z20	X21	Y21	Z21	X22	Y22	Z22	X23	Y23	Z23	X24	Y24	Z24	X25	Y25	Z25	X26	Y26	Z26	X27	Y27	Z27	X28	Y28	Z28	X29	Y29	Z29	X30	Y30	Z30	X31	Y31	Z31	X32	Y32	Z32	X33	Y33	Z33	

1	22.080000000000	787.403861093418	1012.155729273636	534.968992750211	979.582790999647	1436.170409317920	360.195975000426	1083.881700403298	1358.456590574478	515.724007512467	1010.947761048548	1434.915716064300	692.444547432609	986.258461122662	1494.238140137303	512.282912465074	1012.985513003741	940.844559182192	651.348378162952	997.531120897716	960.816962529171	377.638083637686	1056.793124301177	742.597027104833	623.386344728216	975.795639988863	634.129913861145	678.085226068825	1054.667184934585	584.174589947742	597.189000489444	1055.488979704156	496.596099552284	600.706858782536	1078.711218569135	779.444940664134	410.360119202947	1036.083133981056	654.162582840796	329.896316020187	1137.490680218913	590.299481706182	393.693296367101	1151.490169592048	502.074436204821	387.421389746735	1090.211787649075	432.351321135662	376.914449965155	955.519390225088	377.888106872871	321.480958255114	952.080198577792	247.579071266985	375.346919105288	1030.569758951780	407.583950855140	606.344283918087	961.256744531221	301.468446375854	665.751885702265	1005.905656704017	208.774921203891	600.800795421425	874.468203907700	43.338455384865	566.138712631956	1045.711980276286	98.221631862724	605.636547705543	957.364639780209	36.898198796975	642.017698596786	1165.876372799539	43.683886818006	632.068305684715	766.918077839436	159.483514865278	404.178959907881	831.880867174658	130.312960582901	321.753405860247	935.052219497486	147.679874903913	348.334953259196	1026.158840453536	48.589664722847	310.542056740103	948.766726090269	1079.600432105950	247.886688578097	1096.627578976639	861.412511448377	253.654056999634	1041.249373980321	1094.354062254465	829.427177329754	1223.076683042865	906.709859515013	843.037155849349	
2	22.092500000000	785.425166471403	1012.894202307518	536.562758071848	977.854230069963	1436.338318832241	361.018359917816	1082.813380894164	1358.397887592880	515.957412199069	1011.189833452921	1435.125323806680	693.090102363724	985.530685495598	1494.451235709315	513.135814110501	1011.418060533320	941.018587465622	651.686171528158	994.716313462286	961.427937258303	377.925745812661	1052.599794035941	742.077493584676	622.774995630639	971.162382519294	634.215214593654	678.524858232148	1048.681655587158	583.476032343207	597.115734309082	1048.626171328795	496.218824206483	600.794307489767	1076.957975794962	781.773391008705	410.641429910784	1035.792966533602	656.326171812630	329.588837181024	1137.108158568444	593.242695337732	393.369573675282	1152.873574362494	506.613939143330	386.632425633902	1095.508074184378	435.706399774622	375.614771479165	965.215295356666	373.249770879439	320.290017954523	970.843987974875	243.351141061098	373.415029343017	1023.518744853975	407.345829942196	606.489533926288	954.079868762806	301.367361823055	665.989306674195	998.292645998564	208.610464155184	600.821931225135	866.581405797196	43.258889210373	566.249074385255	1037.742403596598	98.163890303025	605.701398299962	949.388497525297	36.871120131014	642.046153994017	1157.919042728047	43.548295194378	632.113614569309	793.393821444946	143.927849272984	402.551284834793	859.340917227237	119.079180218954	319.899067479885	960.592753424421	142.855129881748	346.176225243214	1057.169480899517	50.254478378501	308.114251224061	942.287965577911	1079.954275057566	249.492192126159	1075.891151702159	854.669008440967	252.008614569097	1049.608100421713	1096.744267440905	831.129966903005	1240.447326669537	920.074432126736	841.842031456718	
3	22.105000000000	783.491145429908	1013.626813228192	538.125370425641	976.168503723994	1436.513207410271	361.816208774755	1081.769164867811	1358.339426962762	516.171861399962	1011.435880449086	1435.326592126339	693.709410445581	984.820014930307	1494.659628023642	513.964323434063	1009.859516023651	941.180678801404	651.995569194122	991.938097611885	962.001127853742	378.193109510653	1048.434110018895	741.548854502503	622.190988211094	966.512304394146	634.303059524447	678.959928524733	1042.701221432783	582.774422423829	597.066546968000	1041.763326304436	495.851237737512	600.892239130546	1075.101184393436	783.934745697479	410.862892172499	1035.257415678076	658.344526193501	329.230794098599	1136.471822146545	595.981373467397	393.017118218413	1153.981673350718	511.002503686874	385.829794044326	1100.556700309879	439.001988163927	374.335582781493	974.872335151660	368.609031643179	319.036957355591	989.508783122283	239.290391331476	371.520949136234	1016.481848684004	407.119020888130	606.642970578128	946.926394906029	301.269275987452	666.230909988801	990.728368152445	208.453085961050	600.852014140249	858.759562618647	43.186594339006	566.353540858726	1029.844842923293	98.101074491802	605.757355666034	941.487647597146	36.846712738038	642.078135867595	1150.031263728817	43.415482728886	632.155282828351	819.929732414050	128.696660440720	400.890097170591	886.871883199159	108.146734775928	318.075817177081	986.094907473877	138.277488076310	344.111012653424	1088.049218265745	52.208102185898	305.912093614287	935.873507369872	1080.333590634200	251.054466953605	1055.333729130263	848.234445665052	250.411905946373	1057.792346607210	1099.116470583494	832.748121726711	1257.441938316749	933.400700158295	840.533639941587	
4	22.117500000000	781.641991465372	1014.344283115908	539.616146910775	974.562182435352	1436.698819987652	362.559865031614	1080.768244052820	1358.278897497857	516.343878157293	1011.681682057603	1435.509103725461	694.271180710728	984.138295755081	1494.856119269490	514.739322849107	1008.322545834620	941.320172175643	652.242203956272	989.232509306263	962.502380396499	378.412795975241	1044.313200538284	741.002070643669	621.655715450158	961.818825139971	634.397940716719	679.380622293264	1036.716952679746	582.068849187415	597.060197309455	1034.889235100116	495.500460932015	601.010291848256	1073.037708244519	785.765434325917	410.967412005653	1034.248543044046	660.078995389515	328.770258300683	1135.349488190634	598.323580915042	392.603632648707	1154.552425218850	515.095387298566	385.006801726567	1105.108024348512	442.181616292174	373.091862113767	984.410402085371	363.992556874049	317.696482547847	1007.930610473222	235.593346966269	369.707654889990	1009.450760101680	406.914839021496	606.810434507814	939.790597824749	301.181919665512	666.479611092655	983.227664189010	208.310836373572	600.899779185334	851.028733870244	43.128536076369	566.448139985109	1022.047973432825	98.026670662992	605.792967610637	933.693866679680	36.825027053623	642.112078179292	1142.243153260339	43.286651106032	632.191548136610	846.513534033647	114.175551491545	399.208458096529	914.464265248207	97.853075852631	316.349881974562	1011.457937646857	134.220124222953	342.233701615507	1118.591853113984	54.740771720716	304.144955258224	929.548832320197	1080.776626244128	252.519168676562	1035.120362174925	842.411391449553	248.906151287451	1065.626106999239	1101.444546655155	834.184856942336	1273.671320977339	946.691662851536	838.965595078994	
5	22.130000000000	779.901770680136	1015.042325322524	540.997665854675	973.063453414231	1436.897014771870	363.223307081401	1079.824217728382	1358.212605697311	516.452676898698	1011.921375102318	1435.664459826835	694.747545435529	983.493370017622	1495.034207281133	515.434660556642	1006.819544778427	941.431413881269	652.397922150206	986.625968340216	962.905843454909	378.560258373179	1040.240295371294	740.428601791465	621.189244495137	957.048381006205	634.504428244195	679.778339246232	1030.707745462085	581.358479355676	597.111617643216	1027.982384611199	495.171351500172	601.157627095736	1070.675183448035	787.130125285363	410.908747504021	1032.586830301912	661.421721520549	328.157264029222	1133.557871035250	600.119603500499	392.097830133445	1154.376222135270	518.781520469139	384.162348124041	1108.965649466765	445.206621015505	371.898801982723	993.773603740975	359.439950308807	316.253443358235	1025.991309574426	232.444457237898	368.019502108764	1002.400500186500	406.742471534669	606.995986926418	932.646884308584	301.112927148270	666.737116696886	975.780780871693	208.191339142639	600.971940113468	843.387746135334	43.088998545874	566.530642551646	1014.349148776189	97.931687669711	605.793940452790	926.008761091628	36.806009949026	642.146193366813	1134.555820456926	43.163089511166	632.221137287009	873.124732750141	100.721833483667	397.526816836084	942.112312514927	88.497226546080	314.794760129818	1036.602409720766	130.925203299177	340.634558771054	1148.630795454284	58.096048355075	303.021497603389	923.312131505523	1081.321080977725	253.838074362184	1015.369176561713	837.439879660681	247.522649344612	1072.971530403257	1103.705304618801	835.357152515094	1288.829208994894	959.979261379431	837.004586414307	
